<svg width="12" height="20" viewBox="0 0 12 20" fill="none" xmlns="http://www.w3.org/2000/svg">
<path d="M10.9576 10.8343L2.52664 19.3273C2.26914 19.5872 1.91893 19.7342 1.55305 19.7359C1.18717 19.7376 0.835595 19.5939 0.575665 19.3364C0.315736 19.0789 0.168745 18.7287 0.167029 18.3628C0.165312 17.997 0.309012 17.6454 0.566514 17.3854L8.03002 9.87004L0.511628 2.41055C0.382923 2.28278 0.280644 2.13092 0.210629 1.96362C0.140615 1.79633 0.104237 1.61689 0.103572 1.43554C0.102908 1.25418 0.137969 1.07448 0.206755 0.906676C0.275542 0.738875 0.376705 0.586265 0.50447 0.45756C0.632235 0.328855 0.784099 0.226575 0.951392 0.156561C1.11868 0.0865466 1.29813 0.0501686 1.47948 0.0495039C1.66083 0.0488392 1.84054 0.0839009 2.00834 0.152687C2.17614 0.221473 2.32875 0.322637 2.45746 0.450402L10.9514 8.88133C11.0799 9.00882 11.182 9.16037 11.2518 9.32732C11.3217 9.49427 11.358 9.67335 11.3587 9.85434C11.3594 10.0353 11.3244 10.2147 11.2557 10.3821C11.1871 10.5496 11.0861 10.7019 10.9586 10.8303" fill="#4D4D4D"/>
<path d="M10.9576 10.8343L2.52664 19.3273C2.26914 19.5872 1.91893 19.7342 1.55305 19.7359C1.18717 19.7376 0.835595 19.5939 0.575665 19.3364C0.315736 19.0789 0.168745 18.7287 0.167029 18.3628C0.165312 17.997 0.309012 17.6454 0.566514 17.3854L8.03002 9.87004L0.511628 2.41055C0.382923 2.28278 0.280644 2.13092 0.210629 1.96362C0.140615 1.79633 0.104237 1.61689 0.103572 1.43554C0.102908 1.25418 0.137969 1.07448 0.206755 0.906676C0.275542 0.738875 0.376705 0.586265 0.50447 0.45756C0.632235 0.328855 0.784099 0.226575 0.951392 0.156561C1.11868 0.0865466 1.29813 0.0501686 1.47948 0.0495039C1.66083 0.0488392 1.84054 0.0839009 2.00834 0.152687C2.17614 0.221473 2.32875 0.322637 2.45746 0.450402L10.9514 8.88133C11.0799 9.00882 11.182 9.16037 11.2518 9.32732C11.3217 9.49427 11.358 9.67335 11.3587 9.85434C11.3594 10.0353 11.3244 10.2147 11.2557 10.3821C11.1871 10.5496 11.0861 10.7019 10.9586 10.8303" stroke="#707070" stroke-width="0.035"/>
</svg>
