<svg width="12" height="20" viewBox="0 0 12 20" fill="none" xmlns="http://www.w3.org/2000/svg">
<path d="M0.421976 8.88401L8.88398 0.42201C9.14243 0.163027 9.49318 0.01732 9.85906 0.0169449C10.2249 0.0165698 10.576 0.161558 10.835 0.420012C11.094 0.678465 11.2397 1.02921 11.24 1.3951C11.2404 1.76098 11.0954 2.11203 10.837 2.37101L3.34598 9.85901L10.837 17.346C10.9652 17.4742 11.0669 17.6265 11.1363 17.794C11.2057 17.9616 11.2415 18.1412 11.2415 18.3225C11.2415 18.5039 11.2057 18.6834 11.1363 18.851C11.0669 19.0185 10.9652 19.1708 10.837 19.299C10.7087 19.4272 10.5565 19.529 10.389 19.5984C10.2214 19.6678 10.0418 19.7035 9.86048 19.7035C9.67912 19.7035 9.49955 19.6678 9.332 19.5984C9.16445 19.529 9.01221 19.4272 8.88398 19.299L0.420976 10.837C0.292985 10.709 0.191455 10.5571 0.122185 10.3899C0.0529149 10.2227 0.0172615 10.0435 0.0172615 9.86251C0.0172615 9.68152 0.0529149 9.50231 0.122185 9.3351C0.191455 9.1679 0.292985 9.01598 0.420976 8.88801" fill="#4D4D4D"/>
<path d="M0.421976 8.88401L8.88398 0.42201C9.14243 0.163027 9.49318 0.01732 9.85906 0.0169449C10.2249 0.0165698 10.576 0.161558 10.835 0.420012C11.094 0.678465 11.2397 1.02921 11.24 1.3951C11.2404 1.76098 11.0954 2.11203 10.837 2.37101L3.34598 9.85901L10.837 17.346C10.9652 17.4742 11.0669 17.6265 11.1363 17.794C11.2057 17.9616 11.2415 18.1412 11.2415 18.3225C11.2415 18.5039 11.2057 18.6834 11.1363 18.851C11.0669 19.0185 10.9652 19.1708 10.837 19.299C10.7087 19.4272 10.5565 19.529 10.389 19.5984C10.2214 19.6678 10.0418 19.7035 9.86048 19.7035C9.67912 19.7035 9.49955 19.6678 9.332 19.5984C9.16445 19.529 9.01221 19.4272 8.88398 19.299L0.420976 10.837C0.292985 10.709 0.191455 10.5571 0.122185 10.3899C0.0529149 10.2227 0.0172615 10.0435 0.0172615 9.86251C0.0172615 9.68152 0.0529149 9.50231 0.122185 9.3351C0.191455 9.1679 0.292985 9.01598 0.420976 8.88801" stroke="#707070" stroke-width="0.035"/>
</svg>
