<svg width="44" height="40" viewBox="0 0 44 40" fill="none" xmlns="http://www.w3.org/2000/svg">
<path fill-rule="evenodd" clip-rule="evenodd" d="M39.409 6.568C40.5704 6.568 41.6842 7.02936 42.5055 7.85058C43.3267 8.6718 43.788 9.78562 43.788 10.947V20.04C43.7882 21.0767 43.4205 22.0798 42.7505 22.8708C42.0805 23.6619 41.1516 24.1896 40.129 24.36L17.638 28.108C16.5676 28.2867 15.469 28.0615 14.5551 27.4762C13.6413 26.8909 12.9773 25.9871 12.692 24.94L7.08704 4.379H2.18704C1.89951 4.37887 1.61482 4.32211 1.34923 4.21195C1.08363 4.1018 0.842339 3.94041 0.639118 3.737C0.228695 3.32621 -0.00172983 2.76919 -0.00146462 2.1885C-0.0011994 1.60781 0.229734 1.05101 0.640532 0.640583C1.05133 0.230159 1.60834 -0.000264988 2.18904 2.28693e-07H7.08904C8.05004 -0.000213639 8.98444 0.31571 9.74814 0.899059C10.5118 1.48241 11.0624 2.30078 11.315 3.228L12.226 6.568H39.409ZM15.326 35.03C15.326 35.8961 15.0692 36.7427 14.588 37.4628C14.1069 38.183 13.423 38.7442 12.6228 39.0757C11.8226 39.4071 10.9422 39.4938 10.0927 39.3249C9.24329 39.1559 8.46303 38.7388 7.85061 38.1264C7.2382 37.514 6.82114 36.7337 6.65218 35.8843C6.48321 35.0349 6.56993 34.1544 6.90137 33.3542C7.2328 32.5541 7.79407 31.8702 8.51419 31.389C9.23432 30.9078 10.081 30.651 10.947 30.651C12.1084 30.651 13.2222 31.1124 14.0435 31.9336C14.8647 32.7548 15.326 33.8686 15.326 35.03ZM37.22 35.03C37.22 35.8961 36.9632 36.7427 36.482 37.4628C36.0009 38.183 35.317 38.7442 34.5168 39.0757C33.7166 39.4071 32.8362 39.4938 31.9867 39.3249C31.1373 39.1559 30.357 38.7388 29.7446 38.1264C29.1322 37.514 28.7151 36.7337 28.5462 35.8843C28.3772 35.0349 28.4639 34.1544 28.7954 33.3542C29.1268 32.5541 29.6881 31.8702 30.4082 31.389C31.1283 30.9078 31.9749 30.651 32.841 30.651C34.0024 30.651 35.1162 31.1124 35.9375 31.9336C36.7587 32.7548 37.22 33.8686 37.22 35.03ZM39.409 20.04L16.917 23.788L13.417 10.947H39.409V20.04Z" fill="white"/>
</svg>
