<svg width="24" height="24" viewBox="0 0 24 24" fill="none" xmlns="http://www.w3.org/2000/svg">
<path d="M1.53296 0.18396H22.467C22.8207 0.196628 23.1565 0.342821 23.4068 0.593114C23.6571 0.843407 23.8033 1.17922 23.816 1.53296V22.467C23.8033 22.8207 23.6571 23.1565 23.4068 23.4068C23.1565 23.6571 22.8207 23.8033 22.467 23.816H1.53296C1.17922 23.8033 0.843407 23.6571 0.593114 23.4068C0.342821 23.1565 0.196628 22.8207 0.18396 22.467V1.53296C0.196628 1.17922 0.342821 0.843407 0.593114 0.593114C0.843407 0.342821 1.17922 0.196628 1.53296 0.18396ZM16.966 13.453H20.23L20.372 10.331H16.966V8.02496C16.966 7.13796 17.143 6.64096 18.279 6.64096H20.266L20.338 3.73096C19.6206 3.63223 18.8971 3.58511 18.173 3.58996C15.051 3.58996 13.667 5.54196 13.667 7.63496V10.335H11.361V13.457H13.667V22.114H16.967L16.966 13.453Z" fill="#767677"/>
</svg>
