<svg width="32" height="32" viewBox="0 0 32 32" fill="none" xmlns="http://www.w3.org/2000/svg">
<path d="M21.881 21.905L30.171 30.17M25.392 13.446C25.392 15.8087 24.6914 18.1183 23.3787 20.0828C22.0661 22.0474 20.2004 23.5785 18.0175 24.4827C15.8347 25.3868 13.4328 25.6234 11.1155 25.1625C8.79816 24.7015 6.66959 23.5638 4.99891 21.8931C3.32823 20.2224 2.19048 18.0938 1.72954 15.7765C1.26861 13.4593 1.50518 11.0573 2.40934 8.87446C3.3135 6.69162 4.84465 4.82591 6.80916 3.51326C8.77367 2.20062 11.0833 1.5 13.446 1.5C16.6143 1.5 19.6528 2.75859 21.8931 4.9989C24.1334 7.23921 25.392 10.2777 25.392 13.446Z" stroke="black" stroke-opacity="0.55" stroke-width="3" stroke-linejoin="round"/>
</svg>
