<svg width="35" height="40" viewBox="0 0 35 40" fill="none" xmlns="http://www.w3.org/2000/svg">
<path d="M16.2441 0.0167021C13.8589 0.276921 11.6391 1.36083 9.96708 3.0817C8.48713 4.53388 7.48732 6.40437 7.10208 8.44169C6.91722 9.7187 6.91722 11.0157 7.10208 12.2927C7.48885 14.3295 8.48843 16.1995 9.96708 17.6527C11.4291 19.17 13.3267 20.1953 15.3971 20.5867C16.6791 20.7715 17.981 20.7715 19.2631 20.5867C21.2944 20.1969 23.1589 19.1975 24.6081 17.7217C26.1256 16.2598 27.1509 14.3622 27.5421 12.2917C27.7269 11.0147 27.7269 9.71773 27.5421 8.44071C27.2519 7.03963 26.6977 5.70657 25.9091 4.5127C25.1366 3.49043 24.2282 2.57835 23.2091 1.80171C22.0295 1.00398 20.7043 0.446672 19.3091 0.161691C18.294 0.0194017 17.268 -0.0291254 16.2441 0.0167021Z" fill="white"/>
<path d="M13.1861 23.1987C11.0206 23.478 8.94172 24.2247 7.09333 25.3869C5.24494 26.5491 3.6712 28.0991 2.48108 29.9297C0.992654 32.1904 0.143655 34.8117 0.0240822 37.5157C-0.0219178 38.3707 -0.0149167 38.4707 0.140083 38.7707C0.240185 38.9769 0.405334 39.1446 0.610083 39.2477C0.910083 39.4017 1.02608 39.4017 17.3221 39.4017C33.6181 39.4017 33.7341 39.4017 34.0341 39.2477C34.2388 39.1446 34.404 38.9769 34.5041 38.7707C34.6581 38.4707 34.6661 38.3707 34.6201 37.5157C34.461 33.8156 32.9353 30.3059 30.3381 27.6657C27.8941 25.1119 24.6206 23.512 21.1041 23.1527C19.9411 23.0367 14.2571 23.0677 13.1861 23.1987Z" fill="white"/>
</svg>
