<svg width="15" height="15" viewBox="0 0 15 15" fill="none" xmlns="http://www.w3.org/2000/svg">
<path d="M6.59353 0.112318C5.56423 0.238489 4.49841 0.603724 3.62849 1.12501C2.95779 1.53341 2.18083 2.20743 1.69939 2.80177C-0.452175 5.46466 -0.518581 9.20997 1.53669 11.9492C1.8322 12.3443 2.44314 12.9752 2.83493 13.294C4.18298 14.383 5.76677 14.9442 7.49997 14.9442C9.22986 14.9442 10.7937 14.3963 12.165 13.3172C12.5103 13.0416 13.1279 12.4074 13.4002 12.0422C14.1838 10.9996 14.6619 9.86407 14.8611 8.56251C14.9408 8.04122 14.9408 7.02521 14.8611 6.50392C14.6619 5.20236 14.1871 4.07677 13.3968 3.01759C12.9353 2.40001 12.1418 1.67286 11.4279 1.21134C10.0533 0.324818 8.24372 -0.0869012 6.59353 0.112318ZM8.54587 1.2379C9.34275 1.38068 10.0965 1.6629 10.7638 2.06134L10.9498 2.17755L10.7738 2.2506C10.6609 2.29708 10.5381 2.38341 10.4418 2.48302C10.1595 2.78849 10.2127 3.01095 10.5879 3.09064C10.983 3.17033 11.3051 3.02423 11.2984 2.76193C11.2951 2.68888 11.2619 2.56271 11.2254 2.47638L11.1556 2.317L11.2951 2.41993C11.3715 2.47638 11.4943 2.57267 11.5674 2.63243L11.7002 2.74865L11.481 2.97443C11.3582 3.09728 11.2121 3.27325 11.1523 3.35958C11.0261 3.55216 10.9166 3.62521 10.6709 3.67833C10.4351 3.73146 10.3554 3.82775 10.3554 4.05353C10.3554 4.40216 10.5779 4.61134 10.9465 4.61134C11.2519 4.61134 11.4445 4.49845 11.6537 4.1963C11.8164 3.95724 11.9625 3.84767 12.1052 3.84767C12.2082 3.85099 12.4406 3.97052 12.4904 4.05353C12.5203 4.09337 12.5535 4.20294 12.5634 4.29591C12.5767 4.38556 12.6033 4.48849 12.6199 4.51837C12.6597 4.60138 12.7759 4.59142 12.9187 4.49513L13.0449 4.41212L13.1943 4.71427L13.347 5.01642L13.2574 5.14923C13.0316 5.47462 12.8623 5.45802 12.4174 5.0795C12.0853 4.79064 11.9824 4.74415 11.6869 4.74415C11.4146 4.74415 10.7406 4.8504 10.5215 4.92677C10.3056 5.00314 10.206 5.09279 9.98689 5.40158C9.874 5.56095 9.68806 5.79005 9.57185 5.91622C9.11697 6.40099 9.03728 6.81271 9.29294 7.36056C9.50212 7.80548 9.9404 8.12423 10.4584 8.20392C10.6709 8.2338 10.7705 8.23048 11.0892 8.184C11.9359 8.0545 12.0355 8.11095 12.082 8.77169C12.0986 9.0174 12.1418 9.26642 12.2082 9.5088C12.2845 9.78107 12.3211 10.0002 12.3476 10.3721C12.3676 10.6443 12.4107 10.993 12.4439 11.1457L12.5037 11.4213L12.2978 11.6604C11.1457 12.9918 9.54529 13.7688 7.749 13.8617C7.3904 13.8817 6.61013 13.8352 6.48396 13.7854C6.3445 13.7322 6.53376 13.0117 6.80271 12.5668C6.97204 12.2912 7.22107 12.019 7.6195 11.6736C8.05779 11.2951 8.22048 11.1192 8.35661 10.8635C8.51599 10.558 8.56911 10.2957 8.55583 9.87404C8.54587 9.55529 8.53259 9.48556 8.4529 9.31954C8.33337 9.07716 8.05779 8.82482 7.68591 8.61896C7.52986 8.53263 7.27751 8.3965 7.1281 8.31349C6.97536 8.23048 6.7197 8.04786 6.55368 7.90841C6.14197 7.56642 5.99919 7.50001 5.63728 7.50001C5.43806 7.50001 5.29197 7.48009 5.15915 7.43361C4.8404 7.32404 4.70759 7.34064 4.3656 7.53986C4.02361 7.73575 3.85759 7.759 3.63181 7.64943C3.36286 7.51661 3.0906 7.15802 3.03415 6.86251C3.00095 6.69318 3.0906 6.5172 3.25661 6.43419C3.32634 6.39767 3.50232 6.35118 3.64509 6.33126C3.98044 6.28146 4.1199 6.3213 4.35232 6.52716C4.75407 6.88243 4.94997 6.81603 4.89685 6.34454C4.83708 5.77677 4.83708 5.76017 4.90681 5.6506C4.94333 5.59083 5.07615 5.45802 5.20232 5.35509C5.33181 5.25216 5.46794 5.10939 5.50779 5.03634C5.58415 4.90021 5.58415 4.83712 5.52107 4.38888C5.4945 4.20958 5.58083 4.06349 5.79997 3.90411C6.02575 3.7381 6.12536 3.69493 6.52712 3.57872C7.10818 3.41271 7.29411 3.2799 7.24763 3.07072C7.19782 2.83829 6.75622 2.33361 6.51384 2.234C6.33122 2.15431 6.22497 2.20079 5.9195 2.48634C5.72029 2.6756 5.59743 2.76525 5.45798 2.81505C5.23552 2.89806 4.97322 2.9047 4.857 2.83165C4.75407 2.76193 4.66775 2.60255 4.69431 2.52286C4.70427 2.49298 4.8072 2.37345 4.92673 2.26056C5.16247 2.0381 5.1824 1.97833 5.09275 1.76583C5.06618 1.69943 5.04626 1.64298 5.04958 1.63634C5.05622 1.63302 5.13259 1.59982 5.22224 1.56329C5.37165 1.50685 5.3949 1.50353 5.48454 1.55001C5.55759 1.58654 5.65056 1.59318 5.8365 1.5799C6.14197 1.55997 6.21833 1.58654 6.46736 1.80236C6.75954 2.05802 6.94548 2.12111 7.18454 2.0547C7.5199 1.96173 7.65935 1.63302 7.54314 1.21134C7.52654 1.15158 7.54314 1.14825 7.90173 1.16818C8.11091 1.18146 8.39978 1.21134 8.54587 1.2379ZM1.64626 6.38771C1.78572 6.62345 1.99157 6.992 2.10447 7.20118C2.34685 7.65275 2.46306 7.759 2.93454 7.94493C3.32634 8.10099 3.51892 8.22384 3.64841 8.39982C3.80447 8.61896 3.82771 8.75177 3.83103 9.42579C3.83103 9.99689 3.83767 10.0533 3.91072 10.2127C4.00036 10.4152 4.15974 10.5713 4.52165 10.817C4.95993 11.1125 5.0363 11.2752 5.12927 12.0754C5.15915 12.3443 5.22556 12.7727 5.27868 13.0283C5.32849 13.284 5.36833 13.4965 5.36169 13.4998C5.35837 13.5065 5.25876 13.4699 5.14255 13.4234C2.9279 12.5236 1.42712 10.5414 1.15486 8.16407C1.11169 7.77892 1.13161 6.87911 1.19138 6.55372C1.28103 6.04904 1.33415 5.85646 1.36404 5.90626C1.38064 5.93283 1.50681 6.14865 1.64626 6.38771Z" fill="white" fill-opacity="0.8"/>
</svg>
