<svg width="32" height="20" viewBox="0 0 32 20" fill="none" xmlns="http://www.w3.org/2000/svg">
<path d="M30.991 1.93605C30.6623 2.98612 30.1816 3.98237 29.564 4.89305L29.589 4.85405C29.0024 5.83138 28.3024 6.96071 27.489 8.24205C26.791 9.25338 26.4214 9.77705 26.38 9.81305C26.1932 10.0466 26.0724 10.326 26.03 10.622V10.631C26.0635 10.8977 26.1874 11.1447 26.381 11.331L26.905 11.915C29.705 14.7937 31.2807 16.778 31.632 17.868C31.6797 17.996 31.704 18.1315 31.704 18.268C31.7042 18.5124 31.6276 18.7506 31.485 18.949C31.3671 19.0707 31.226 19.1673 31.07 19.2333C30.914 19.2993 30.7464 19.3332 30.577 19.333C30.5376 19.3334 30.4982 19.3317 30.459 19.328H27.018C26.5941 19.3285 26.1828 19.1834 25.853 18.917C25.3988 18.5447 24.9819 18.1291 24.608 17.676L24.596 17.66C23.996 16.9787 23.4627 16.405 22.996 15.939C21.4407 14.461 20.293 13.722 19.553 13.722C19.526 13.722 19.494 13.722 19.461 13.722C19.2525 13.7219 19.0489 13.7851 18.877 13.903C18.7347 14.081 18.6575 14.3022 18.658 14.53C18.6577 14.5759 18.6607 14.6217 18.667 14.667V14.662C18.632 15.073 18.611 15.551 18.611 16.034C18.611 16.19 18.611 16.344 18.618 16.499V17.989C18.6317 18.0548 18.6388 18.1218 18.639 18.189C18.6392 18.3393 18.6062 18.4877 18.5425 18.6238C18.4787 18.7598 18.3856 18.8801 18.27 18.976C17.7285 19.2203 17.141 19.3458 16.547 19.344C16.413 19.344 16.283 19.337 16.153 19.326H16.17C14.1871 19.2925 12.2509 18.7185 10.57 17.666L10.616 17.692C8.67908 16.5245 7.01881 14.9502 5.75002 13.078L5.72102 13.029C4.49111 11.3865 3.41016 9.63762 2.49102 7.80305L2.39902 7.60305C1.78416 6.41476 1.24378 5.1894 0.781016 3.93405L0.702016 3.69205C0.488337 3.04068 0.352394 2.36633 0.297016 1.68305L0.291016 1.64905C0.291016 0.987715 0.680349 0.657048 1.45902 0.657048H4.90402C4.93502 0.657048 4.97202 0.657048 5.01002 0.657048C5.32265 0.657006 5.6261 0.762738 5.87102 0.957047C6.13853 1.24925 6.32804 1.60419 6.42202 1.98905V2.00505C6.992 3.63119 7.68742 5.21061 8.50202 6.72905L8.41402 6.54905C9.00255 7.74423 9.71477 8.87441 10.539 9.92105L10.509 9.88005C11.207 10.7367 11.7517 11.165 12.143 11.165H12.185C12.277 11.165 12.3674 11.1407 12.4471 11.0948C12.5267 11.0488 12.5929 10.9827 12.639 10.903C12.7411 10.6352 12.793 10.3507 12.792 10.064C12.792 10 12.792 9.93605 12.784 9.87305V4.80305C12.7593 4.22892 12.617 3.66598 12.366 3.14905L12.376 3.17405C12.2233 2.84458 12.0251 2.53825 11.787 2.26405V2.26905C11.5676 2.04999 11.4248 1.76587 11.38 1.45905V1.44905C11.38 1.34307 11.4034 1.2384 11.4487 1.1426C11.4941 1.0468 11.5601 0.962245 11.642 0.895048C11.8058 0.74508 12.0199 0.661948 12.242 0.662048H17.68C17.7132 0.658079 17.7466 0.656408 17.78 0.657048C17.9015 0.657451 18.0215 0.684527 18.1314 0.736365C18.2413 0.788203 18.3384 0.863537 18.416 0.957047C18.5577 1.21863 18.6316 1.51155 18.631 1.80905C18.631 1.85905 18.631 1.90905 18.624 1.95605V8.72105C18.624 8.75205 18.624 8.78905 18.624 8.82105C18.6238 9.05347 18.6867 9.28159 18.806 9.48105V9.47605C18.854 9.5477 18.9188 9.60644 18.9949 9.64708C19.0709 9.68771 19.1558 9.709 19.242 9.70905C19.4629 9.69482 19.676 9.62161 19.859 9.49705C20.2048 9.26058 20.517 8.97834 20.787 8.65805L20.792 8.65105C21.6006 7.73609 22.3255 6.75048 22.958 5.70605L23.009 5.61405C23.5105 4.76865 23.9684 3.89818 24.381 3.00605L24.462 2.81405L25.046 1.64905C25.144 1.35829 25.3305 1.10551 25.5794 0.926158C25.8284 0.746812 26.1272 0.649909 26.434 0.649048H29.949C30.8824 0.649048 31.2314 1.07705 30.996 1.93305L30.991 1.93605Z" fill="#767677"/>
</svg>
